{
  "accessors": [
    {
      "bufferView": 1,
      "componentType": 5126,
      "type": "VEC3",
      "count": 26327,
      "min": [-21, -21, 0],
      "max": [20, 20, 28]
    },
    {
      "bufferView": 1,
      "componentType": 5126,
      "type": "VEC3",
      "byteOffset": 12,
      "count": 26327
    },
    {
      "bufferView": 1,
      "componentType": 5126,
      "type": "VEC2",
      "byteOffset": 24,
      "count": 26327
    },
    {
      "bufferView": 2,
      "componentType": 5125,
      "type": "SCALAR",
      "count": 87156
    },
    {
      "bufferView": 3,
      "componentType": 5126,
      "type": "VEC3",
      "count": 19896,
      "min": [-18, -18, 28],
      "max": [18, 18, 53]
    },
    {
      "bufferView": 3,
      "componentType": 5126,
      "type": "VEC3",
      "byteOffset": 12,
      "count": 19896
    },
    {
      "bufferView": 3,
      "componentType": 5126,
      "type": "VEC2",
      "byteOffset": 24,
      "count": 19896
    },
    {
      "bufferView": 4,
      "componentType": 5125,
      "type": "SCALAR",
      "count": 50952
    },
    {
      "bufferView": 5,
      "componentType": 5126,
      "type": "VEC3",
      "count": 4098,
      "min": [-13, -13, 12],
      "max": [19, 19, 53]
    },
    {
      "bufferView": 5,
      "componentType": 5126,
      "type": "VEC3",
      "byteOffset": 12,
      "count": 4098
    },
    {
      "bufferView": 5,
      "componentType": 5126,
      "type": "VEC2",
      "byteOffset": 24,
      "count": 4098
    },
    {
      "bufferView": 6,
      "componentType": 5125,
      "type": "SCALAR",
      "count": 11004
    },
    {
      "bufferView": 7,
      "componentType": 5126,
      "type": "VEC3",
      "count": 532,
      "min": [-9, -13, 21],
      "max": [13, 13, 51]
    },
    {
      "bufferView": 7,
      "componentType": 5126,
      "type": "VEC3",
      "byteOffset": 12,
      "count": 532
    },
    {
      "bufferView": 7,
      "componentType": 5126,
      "type": "VEC2",
      "byteOffset": 24,
      "count": 532
    },
    {
      "bufferView": 8,
      "componentType": 5125,
      "type": "SCALAR",
      "count": 1464
    },
    {
      "bufferView": 9,
      "componentType": 5126,
      "type": "VEC3",
      "count": 262,
      "min": [-10, -5, 13],
      "max": [-9, 0, 23]
    },
    {
      "bufferView": 9,
      "componentType": 5126,
      "type": "VEC3",
      "byteOffset": 12,
      "count": 262
    },
    {
      "bufferView": 9,
      "componentType": 5126,
      "type": "VEC2",
      "byteOffset": 24,
      "count": 262
    },
    {
      "bufferView": 10,
      "componentType": 5125,
      "type": "SCALAR",
      "count": 660
    },
    {
      "bufferView": 11,
      "componentType": 5126,
      "type": "VEC3",
      "count": 262,
      "min": [-10, 0, 13],
      "max": [-9, 5, 23]
    },
    {
      "bufferView": 11,
      "componentType": 5126,
      "type": "VEC3",
      "byteOffset": 12,
      "count": 262
    },
    {
      "bufferView": 11,
      "componentType": 5126,
      "type": "VEC2",
      "byteOffset": 24,
      "count": 262
    },
    {
      "bufferView": 12,
      "componentType": 5125,
      "type": "SCALAR",
      "count": 636
    }
  ],
  "asset": {
    "generator": "goxel",
    "version": "2.0"
  },
  "bufferViews": [
    {
      "buffer": 0,
      "byteLength": 302
    },
    {
      "buffer": 1,
      "byteLength": 1053080,
      "byteStride": 40
    },
    {
      "buffer": 2,
      "byteLength": 348624
    },
    {
      "buffer": 3,
      "byteLength": 795840,
      "byteStride": 40
    },
    {
      "buffer": 4,
      "byteLength": 203808
    },
    {
      "buffer": 5,
      "byteLength": 163920,
      "byteStride": 40
    },
    {
      "buffer": 6,
      "byteLength": 44016
    },
    {
      "buffer": 7,
      "byteLength": 21280,
      "byteStride": 40
    },
    {
      "buffer": 8,
      "byteLength": 5856
    },
    {
      "buffer": 9,
      "byteLength": 10480,
      "byteStride": 40
    },
    {
      "buffer": 10,
      "byteLength": 2640
    },
    {
      "buffer": 11,
      "byteLength": 10480,
      "byteStride": 40
    },
    {
      "buffer": 12,
      "byteLength": 2544
    }
  ],
  "buffers": [
    {
      "uri": "data:application/octet-stream;base64,",
      "byteLength": 302
    },
    {
      "uri": "data:application/octet-stream;base64,",
      "byteLength": 1053080
    },
    {
      "uri": "data:application/octet-stream;base64,",
      "byteLength": 348624
    },
    {
      "uri": "data:application/octet-stream;base64,",
      "byteLength": 795840
    },
    {
      "uri": "data:application/octet-stream;base64,",
      "byteLength": 203808
    },
    {
      "uri": "data:application/octet-stream;base64,",
      "byteLength": 163920
    },
    {
      "uri": "data:application/octet-stream;base64,",
      "byteLength": 44016
    },
    {
      "uri": "data:application/octet-stream;base64,",
      "byteLength": 21280
    },
    {
      "uri": "data:application/octet-stream;base64,",
      "byteLength": 5856
    },
    {
      "uri": "data:application/octet-stream;base64,",
      "byteLength": 10480
    },
    {
      "uri": "data:application/octet-stream;base64,",
      "byteLength": 2640
    },
    {
      "uri": "data:application/octet-stream;base64,",
      "byteLength": 10480
    },
    {
      "uri": "data:application/octet-stream;base64,",
      "byteLength": 2544
    }
  ],
  "images": [
    {
      "bufferView": 0,
      "mimeType": "image/png"
    }
  ],
  "meshes": [
    {
      "primitives": [
        {
          "indices": 3,
          "material": 0,
          "attributes": {
            "POSITION": 0,
            "NORMAL": 1,
            "TEXCOORD_0": 2
          }
        }
      ]
    },
    {
      "primitives": [
        {
          "indices": 7,
          "material": 0,
          "attributes": {
            "POSITION": 4,
            "NORMAL": 5,
            "TEXCOORD_0": 6
          }
        }
      ]
    },
    {
      "primitives": [
        {
          "indices": 11,
          "material": 0,
          "attributes": {
            "POSITION": 8,
            "NORMAL": 9,
            "TEXCOORD_0": 10
          }
        }
      ]
    },
    {
      "primitives": [
        {
          "indices": 15,
          "material": 0,
          "attributes": {
            "POSITION": 12,
            "NORMAL": 13,
            "TEXCOORD_0": 14
          }
        }
      ]
    },
    {
      "primitives": [
        {
          "indices": 19,
          "material": 0,
          "attributes": {
            "POSITION": 16,
            "NORMAL": 17,
            "TEXCOORD_0": 18
          }
        }
      ]
    },
    {
      "primitives": [
        {
          "indices": 23,
          "material": 0,
          "attributes": {
            "POSITION": 20,
            "NORMAL": 21,
            "TEXCOORD_0": 22
          }
        }
      ]
    }
  ],
  "materials": [
    {
      "name": "Material.1",
      "pbrMetallicRoughness": {
        "baseColorTexture": {
          "index": 0
        },
        "metallicFactor": 0.200000003,
        "roughnessFactor": 0.5
      }
    }
  ],
  "nodes": [
    {
      "children": [ 1, 2, 3, 4, 5, 6 ],
      "matrix": [1, 0, 0, 0, 0, 0, -1, 0, 0, 1, 0, 0, 0, 0, 0, 1]
    },
    {
      "mesh": 0,
      "name": "Layer.1"
    },
    {
      "mesh": 1,
      "name": "Layer.2"
    },
    {
      "mesh": 2,
      "name": "Layer.3"
    },
    {
      "mesh": 3,
      "name": "Layer.4"
    },
    {
      "mesh": 4,
      "name": "Layer.5"
    },
    {
      "mesh": 5,
      "name": "Layer.6"
    }
  ],
  "scenes": [
    {
      "nodes": [ 0 ]
    }
  ],
  "textures": [
    {
      "source": 0
    }
  ]
}
